<svg width="402" height="243" viewBox="0 0 402 243" fill="none" xmlns="http://www.w3.org/2000/svg">
<path d="M401.816 56.1812V141.148C401.816 148.718 395.675 154.858 388.106 154.858C380.536 154.858 374.396 148.718 374.396 141.148V61.6577C374.396 37.8092 363.154 24.6506 343.429 24.6506C323.704 24.6506 308.615 37.8092 308.615 61.6577V141.148C308.615 148.718 302.474 154.858 294.905 154.858C287.336 154.858 281.195 148.718 281.195 141.148V61.6577C281.195 37.8092 269.954 24.6506 250.228 24.6506C230.503 24.6506 215.414 37.8092 215.414 61.6577V141.148C215.414 148.718 209.274 154.858 201.704 154.858C194.135 154.858 187.994 148.718 187.994 141.148V17.8081C187.994 10.2387 194.135 4.09803 201.704 4.09803C209.274 4.09803 215.414 10.2387 215.414 17.8081V33.4606C215.414 35.2777 217.933 35.7038 218.547 33.9869C225.503 14.6625 240.391 1.35352 263.374 1.35352C287.762 1.35352 302.387 15.9032 307.049 38.9998C307.387 40.6665 309.73 40.7918 310.182 39.1501C316.209 17.0687 331.536 1.36605 356.563 1.36605C386.715 1.36605 401.791 23.5728 401.791 56.1812H401.816Z" fill="#061828"/>
<path d="M165.561 177.692V16.442C165.561 8.87268 159.42 2.73198 151.851 2.73198C144.281 2.73198 138.141 8.87268 138.141 16.442V48.3361C138.141 50.2033 135.509 50.5793 134.983 48.7872C126.661 20.5149 107.036 0 74.0017 0C30.4152 0 0 35.9043 0 78.1122C0 120.32 30.4278 156.224 74.0017 156.224C107.036 156.224 126.661 135.709 134.983 107.437C135.509 105.645 138.141 106.021 138.141 107.888V177.679C138.141 198.959 122.25 217.844 92.5742 217.844C68.3748 217.844 54.6397 205.826 49.3637 190.387C47.4087 184.672 41.9823 180.862 35.9293 180.862C26.3173 180.862 19.3495 190.224 22.3321 199.36C29.939 222.632 52.5343 242.507 92.5742 242.507C143.003 242.507 165.548 210.989 165.548 181.74C165.548 179.935 165.548 178.13 165.548 177.667L165.561 177.692ZM83.6012 131.561C49.6143 131.561 28.7861 108.264 28.7861 78.1122C28.7861 47.9601 49.6143 24.663 83.6012 24.663C117.588 24.663 138.141 47.9601 138.141 78.1122C138.141 108.264 117.588 131.561 83.6012 131.561Z" fill="#061828"/>
</svg>
