<svg width="204" height="184" viewBox="0 0 204 184" fill="none" xmlns="http://www.w3.org/2000/svg">
<path d="M160.836 -0.000244141C139.769 -0.000244141 122.676 17.0809 122.676 38.1473C122.676 59.2136 139.757 76.3073 160.836 76.3073C181.915 76.3073 198.983 59.2262 198.983 38.1473C198.983 17.0684 181.915 -0.000244141 160.836 -0.000244141ZM160.836 61.0433C148.191 61.0433 137.94 50.7921 137.94 38.1473C137.94 25.5025 148.191 15.2512 160.836 15.2512C173.481 15.2512 183.732 25.5025 183.732 38.1473C183.732 50.7921 173.481 61.0433 160.836 61.0433Z" fill="black"/>
<path d="M42.4584 0C21.3795 0 4.29834 17.0812 4.29834 38.1475C4.29834 59.2139 21.3795 76.3076 42.4459 76.3076C63.5122 76.3076 80.6059 59.2264 80.6059 38.1475C80.6059 17.0686 63.5248 0 42.4584 0ZM42.4584 61.0436C29.8136 61.0436 19.5624 50.7923 19.5624 38.1475C19.5624 25.5027 29.8136 15.2515 42.4584 15.2515C55.1032 15.2515 65.3544 25.5027 65.3544 38.1475C65.3544 50.7923 55.1032 61.0436 42.4584 61.0436Z" fill="black"/>
<path d="M85.4434 20.6898C88.4386 27.4069 89.9299 34.9512 89.4161 42.8965C87.8746 66.8578 68.1242 85.9942 44.1253 86.8088C25.2771 87.4354 8.82255 76.9837 0.764454 61.4565C0.563942 61.068 0 60.2283 0 62.0079V74.8156C0 80.1793 0.538877 94.1902 9.37396 105.682C11.354 108.264 14.2113 112.073 18.0712 116.422C19.0863 117.562 19.1866 119.254 18.3218 120.507C16.7177 122.838 15.1638 125.207 13.309 127.362C11.4793 129.505 10.7525 132.463 13.3967 135.471C15.665 138.04 17.808 140.759 19.4873 143.792C20.8909 146.323 20.6779 147.965 18.6351 150.033C17.4446 151.236 16.1413 152.602 14.7251 153.943C13.2714 155.321 9.59954 159.081 5.85246 159.795C3.53403 160.234 2.13045 163.304 2.75705 164.746C4.09798 167.828 6.01538 169.32 9.01053 168.605C10.9279 168.154 12.1561 166.889 13.096 165.322C14.9382 162.252 16.8055 159.206 19.0988 156.462C19.7881 155.647 20.7907 154.92 21.5426 154.695C22.7582 154.319 25.816 154.657 25.6656 158.066C25.5779 160.021 25.3774 161.951 24.9764 163.856C24.1367 167.803 23.7482 171.876 21.104 175.247C19.9886 176.676 20.0889 178.368 20.9786 180.022C22.1942 182.265 24.8134 183.732 26.5805 183.406C29.939 182.792 31.9316 180.586 31.7938 177.566C31.6058 173.505 31.2298 169.495 31.1922 165.397C31.1797 163.48 31.2549 160.886 32.057 158.73C33.1096 155.873 35.804 155.146 38.0723 157.126C39.5636 158.429 40.7166 160.021 41.6565 161.75C42.6591 163.605 43.5112 165.535 44.6391 167.302C45.9299 169.32 48.2233 169.934 50.5668 169.169C52.5218 168.53 53.8752 166.65 53.8251 164.583C53.775 162.277 52.622 160.898 50.0655 160.171C48.712 159.783 47.4338 159.219 46.3685 158.317C44.3008 156.562 38.348 150.91 36.2677 148.918C31.7437 144.569 27.395 140.045 23.2219 135.358C21.0288 132.902 21.104 130.044 23.3221 127.613C23.5101 127.413 23.7482 127.174 24.0364 126.899C25.2897 125.733 27.2071 125.696 28.4853 126.824C43.1979 139.794 65.9937 153.016 99.5545 153.016H103.815C137.326 153.016 160.122 139.819 174.834 126.861C176.113 125.733 178.043 125.771 179.296 126.936C179.559 127.187 179.797 127.413 179.96 127.601C182.178 130.032 182.253 132.889 180.06 135.345C175.875 140.032 171.539 144.556 167.014 148.905C164.947 150.898 158.981 156.55 156.914 158.304C155.836 159.206 154.57 159.77 153.217 160.159C150.66 160.886 149.507 162.264 149.457 164.57C149.407 166.625 150.76 168.505 152.715 169.157C155.059 169.921 157.352 169.307 158.643 167.29C159.771 165.523 160.623 163.58 161.626 161.738C162.566 159.996 163.731 158.417 165.21 157.114C167.478 155.121 170.173 155.86 171.225 158.718C172.015 160.873 172.102 163.467 172.09 165.385C172.052 169.483 171.664 173.493 171.488 177.553C171.351 180.586 173.343 182.779 176.702 183.393C178.469 183.719 181.088 182.253 182.304 180.01C183.193 178.368 183.294 176.663 182.178 175.235C179.534 171.864 179.145 167.778 178.306 163.843C177.905 161.951 177.704 160.021 177.617 158.053C177.466 154.645 180.524 154.306 181.74 154.682C182.492 154.92 183.494 155.635 184.183 156.449C186.477 159.206 188.344 162.252 190.186 165.322C191.126 166.889 192.354 168.154 194.272 168.605C197.267 169.32 199.184 167.828 200.525 164.746C201.152 163.317 199.748 160.234 197.43 159.795C193.683 159.094 189.998 155.321 188.557 153.943C187.141 152.602 185.838 151.236 184.647 150.033C182.604 147.965 182.391 146.323 183.795 143.792C185.474 140.759 187.63 138.04 189.885 135.471C192.542 132.45 191.803 129.505 189.973 127.362C188.143 125.219 186.59 122.876 185.01 120.558C184.146 119.292 184.259 117.613 185.274 116.472C189.159 112.098 192.028 108.264 194.021 105.67C202.856 94.1776 203.395 80.1668 203.395 74.8031V61.7823C203.395 60.2033 202.831 61.068 202.631 61.4565C194.572 76.9837 178.105 87.4479 159.27 86.8088C135.271 86.0067 115.508 66.8578 113.979 42.8965C113.465 34.9512 114.956 27.4069 117.952 20.6898C117.952 20.6898 110.069 16.291 101.848 16.291C95.2184 16.291 90.1429 18.5092 85.4936 20.6898H85.4434ZM176.789 102.762C172.554 105.344 168.167 107.324 163.255 108.051C159.746 108.577 156.162 108.552 152.615 108.226C146.775 107.687 141.286 106.083 135.922 103.802C128.215 100.519 120.571 97.2605 112.124 96.0073C108.603 95.481 105.119 95.2679 101.66 95.318C98.201 95.2679 94.7171 95.4935 91.1956 96.0073C82.7616 97.2605 75.1045 100.519 67.3973 103.802C62.0336 106.083 56.5446 107.675 50.7046 108.226C47.1581 108.552 43.5864 108.577 40.0649 108.051C35.1649 107.311 30.7787 105.331 26.5303 102.762C25.6656 102.236 26.0541 101.283 27.0316 101.659C33.4731 104.09 40.466 104.98 47.321 104.517C52.3087 104.178 57.3215 102.812 61.9584 100.857C67.5226 98.5137 73.0242 95.2804 78.7388 93.3505C86.1954 90.8316 93.865 89.7288 101.66 89.7663C109.455 89.7288 117.124 90.8441 124.581 93.3505C130.296 95.2804 135.797 98.5137 141.361 100.857C145.998 102.812 150.999 104.178 155.999 104.517C162.854 104.993 169.847 104.09 176.288 101.659C177.266 101.283 177.654 102.236 176.789 102.762Z" fill="black"/>
<path d="M37.659 26.9043C39.5138 26.9043 41.0051 28.4081 41.0051 30.2504C41.0051 32.0926 39.5013 33.5964 37.659 33.5964C35.8168 33.5964 34.313 32.0926 34.313 30.2504C34.313 28.4081 35.8168 26.9043 37.659 26.9043Z" fill="black"/>
<path d="M34.5634 40.9907C35.7665 40.9907 36.744 41.9682 36.744 43.1713C36.744 44.3744 35.7665 45.3519 34.5634 45.3519C33.3603 45.3519 32.3828 44.3744 32.3828 43.1713C32.3828 41.9682 33.3603 40.9907 34.5634 40.9907Z" fill="black"/>
<path d="M165.761 26.9043C163.919 26.9043 162.428 28.3956 162.428 30.2378C162.428 32.08 163.919 33.5713 165.761 33.5713C167.603 33.5713 169.095 32.08 169.095 30.2378C169.095 28.3956 167.603 26.9043 165.761 26.9043Z" fill="black"/>
<path d="M168.844 40.927C167.641 40.927 166.664 41.9045 166.664 43.1076C166.664 44.3107 167.641 45.2882 168.844 45.2882C170.047 45.2882 171.025 44.3107 171.025 43.1076C171.025 41.9045 170.047 40.927 168.844 40.927Z" fill="black"/>
</svg>
