<svg width="72" height="65" viewBox="0 0 72 65" fill="none" xmlns="http://www.w3.org/2000/svg">
<path d="M56.9341 0C49.4768 0 43.4258 6.04658 43.4258 13.5039C43.4258 20.9612 49.4724 27.0122 56.9341 27.0122C64.3958 27.0122 70.438 20.9656 70.438 13.5039C70.438 6.04214 64.3958 0 56.9341 0ZM56.9341 21.6089C52.4579 21.6089 48.8291 17.98 48.8291 13.5039C48.8291 9.02773 52.4579 5.39889 56.9341 5.39889C61.4103 5.39889 65.0391 9.02773 65.0391 13.5039C65.0391 17.98 61.4103 21.6089 56.9341 21.6089Z" fill="#9AF4B4"/>
<path d="M15.0298 0C7.56806 0 1.52148 6.04658 1.52148 13.5039C1.52148 20.9612 7.56807 27.0122 15.0254 27.0122C22.4827 27.0122 28.5337 20.9656 28.5337 13.5039C28.5337 6.04214 22.4871 0 15.0298 0ZM15.0298 21.6089C10.5536 21.6089 6.92481 17.98 6.92481 13.5039C6.92481 9.02773 10.5536 5.39889 15.0298 5.39889C19.506 5.39889 23.1348 9.02773 23.1348 13.5039C23.1348 17.98 19.506 21.6089 15.0298 21.6089Z" fill="#9AF4B4"/>
<path d="M30.2462 7.32421C31.3065 9.70203 31.8344 12.3726 31.6525 15.1852C31.1068 23.6673 24.1153 30.4414 15.62 30.7298C8.94788 30.9516 3.12311 27.2517 0.27061 21.7553C0.19963 21.6177 0 21.3205 0 21.9505V26.4843C0 28.383 0.190758 33.3427 3.3183 37.4107C4.01922 38.3246 5.03068 39.6732 6.39704 41.2126C6.75638 41.6163 6.79187 42.2152 6.48577 42.6588C5.91793 43.4839 5.36784 44.3224 4.71128 45.0854C4.06359 45.844 3.80628 46.8909 4.74233 47.9556C5.54529 48.8651 6.30388 49.8277 6.89834 50.9013C7.39519 51.7974 7.31978 52.3786 6.59667 53.1105C6.17523 53.5364 5.71386 54.02 5.21257 54.4946C4.69797 54.9826 3.39815 56.3135 2.07172 56.5664C1.25102 56.7216 0.754159 57.8085 0.97597 58.3187C1.45065 59.41 2.12939 59.9379 3.18965 59.685C3.86839 59.5253 4.30314 59.0773 4.63586 58.5227C5.28799 57.4359 5.94898 56.3579 6.76081 55.3863C7.00481 55.098 7.3597 54.8407 7.62588 54.7608C8.05619 54.6277 9.13863 54.7475 9.0854 55.9542C9.05434 56.6462 8.98336 57.3294 8.8414 58.0037C8.54418 59.4011 8.40665 60.8429 7.47061 62.0362C7.07579 62.542 7.11128 63.1409 7.42625 63.7264C7.85656 64.5205 8.78373 65.0396 9.40924 64.9242C10.5982 64.7068 11.3035 63.9261 11.2547 62.8569C11.1882 61.4196 11.0551 60 11.0418 58.5494C11.0373 57.8706 11.064 56.9523 11.3479 56.1893C11.7205 55.1778 12.6743 54.9205 13.4773 55.6214C14.0052 56.0828 14.4133 56.6462 14.746 57.2584C15.1009 57.915 15.4026 58.5981 15.8018 59.2237C16.2588 59.9379 17.0706 60.1553 17.9002 59.8847C18.5922 59.6584 19.0714 58.993 19.0536 58.261C19.0359 57.4447 18.6277 56.9567 17.7227 56.6994C17.2436 56.5619 16.7911 56.3623 16.414 56.0429C15.6821 55.4218 13.5749 53.4211 12.8384 52.7157C11.237 51.1763 9.6976 49.5749 8.22033 47.9157C7.44399 47.0462 7.47061 46.0347 8.25582 45.1741C8.32237 45.1031 8.40665 45.0188 8.50869 44.9212C8.95231 44.5087 9.63105 44.4954 10.0835 44.8946C15.2917 49.4861 23.3612 54.1664 35.2414 54.1664H36.7497C48.6122 54.1664 56.6817 49.495 61.8898 44.9079C62.3423 44.5087 63.0255 44.522 63.4691 44.9346C63.5623 45.0233 63.6466 45.1031 63.7043 45.1697C64.4895 46.0303 64.5161 47.0418 63.7397 47.9113C62.258 49.5704 60.7231 51.1719 59.1216 52.7113C58.3896 53.4166 56.278 55.4174 55.546 56.0384C55.1645 56.3579 54.7164 56.5575 54.2373 56.695C53.3323 56.9523 52.9242 57.4403 52.9065 58.2566C52.8887 58.9841 53.3678 59.6495 54.0599 59.8802C54.8895 60.1508 55.7013 59.9335 56.1582 59.2192C56.5575 58.5937 56.8591 57.9061 57.214 57.254C57.5468 56.6373 57.9593 56.0784 58.4828 55.617C59.2858 54.9116 60.2396 55.1734 60.6122 56.1848C60.8917 56.9479 60.9227 57.8662 60.9183 58.5449C60.905 59.9956 60.7675 61.4152 60.7054 62.8525C60.6566 63.9261 61.3619 64.7024 62.5508 64.9198C63.1763 65.0351 64.1035 64.5161 64.5338 63.722C64.8488 63.1408 64.8843 62.5375 64.4895 62.0318C63.5534 60.8384 63.4159 59.3922 63.1187 57.9993C62.9767 57.3294 62.9057 56.6462 62.8747 55.9497C62.8214 54.7431 63.9039 54.6233 64.3342 54.7564C64.6004 54.8407 64.9553 55.0935 65.1993 55.3819C66.0111 56.3578 66.6721 57.4359 67.3242 58.5227C67.6569 59.0773 68.0917 59.5253 68.7704 59.685C69.8307 59.9379 70.5094 59.41 70.9841 58.3187C71.2059 57.8129 70.7091 56.7216 69.8884 56.5664C68.5619 56.3179 67.2577 54.9826 66.7475 54.4946C66.2462 54.02 65.7849 53.5364 65.3634 53.1105C64.6403 52.3786 64.5649 51.7974 65.0617 50.9013C65.6562 49.8277 66.4192 48.8651 67.2177 47.9556C68.1582 46.8865 67.8965 45.844 67.2488 45.0854C66.6011 44.3268 66.051 43.4972 65.4921 42.6765C65.186 42.2285 65.2259 41.634 65.5852 41.2303C66.9604 39.6821 67.9763 38.3246 68.6817 37.4063C71.8092 33.3383 72 28.3786 72 26.4798V21.8706C72 21.3116 71.8004 21.6177 71.7294 21.7553C68.8769 27.2517 63.0477 30.956 56.38 30.7298C47.8847 30.4458 40.8887 23.6673 40.3475 15.1852C40.1656 12.3726 40.6935 9.70203 41.7538 7.32421C41.7538 7.32421 38.9634 5.76709 36.0532 5.76709C33.7065 5.76709 31.9098 6.5523 30.264 7.32421H30.2462ZM62.5819 36.3771C61.0824 37.2909 59.5298 37.9919 57.7908 38.2492C56.5486 38.4355 55.2799 38.4266 54.0244 38.3113C51.9571 38.1205 50.014 37.5527 48.1153 36.7453C45.3871 35.583 42.681 34.4296 39.6909 33.9859C38.4444 33.7996 37.2111 33.7242 35.9867 33.742C34.7623 33.7242 33.529 33.8041 32.2824 33.9859C29.2969 34.4296 26.5863 35.583 23.858 36.7453C21.9593 37.5527 20.0163 38.1161 17.949 38.3113C16.6935 38.4266 15.4292 38.4355 14.1826 38.2492C12.4481 37.9874 10.8954 37.2865 9.3915 36.3771C9.0854 36.1908 9.22292 35.8536 9.56895 35.9867C11.8492 36.8473 14.3246 37.1623 16.7512 36.9981C18.5168 36.8784 20.2913 36.3948 21.9327 35.7028C23.9024 34.8732 25.8499 33.7286 27.8728 33.0455C30.5124 32.1538 33.2274 31.7634 35.9867 31.7767C38.746 31.7634 41.461 32.1582 44.1006 33.0455C46.1235 33.7286 48.071 34.8732 50.0407 35.7028C51.6821 36.3948 53.4521 36.8784 55.2222 36.9981C57.6488 37.1667 60.1242 36.8473 62.4044 35.9867C62.7505 35.8536 62.888 36.1908 62.5819 36.3771Z" fill="#9AF4B4"/>
<path d="M13.331 9.52393C13.9875 9.52393 14.5154 10.0563 14.5154 10.7084C14.5154 11.3605 13.9831 11.8929 13.331 11.8929C12.6788 11.8929 12.1465 11.3605 12.1465 10.7084C12.1465 10.0563 12.6788 9.52393 13.331 9.52393Z" fill="#9AF4B4"/>
<path d="M12.2348 14.5103C12.6607 14.5103 13.0067 14.8563 13.0067 15.2822C13.0067 15.708 12.6607 16.0541 12.2348 16.0541C11.8089 16.0541 11.4629 15.708 11.4629 15.2822C11.4629 14.8563 11.8089 14.5103 12.2348 14.5103Z" fill="#9AF4B4"/>
<path d="M58.6781 9.52393C58.026 9.52393 57.498 10.0518 57.498 10.704C57.498 11.3561 58.026 11.884 58.6781 11.884C59.3302 11.884 59.8581 11.3561 59.8581 10.704C59.8581 10.0518 59.3302 9.52393 58.6781 9.52393Z" fill="#9AF4B4"/>
<path d="M59.77 14.4878C59.3441 14.4878 58.998 14.8338 58.998 15.2597C58.998 15.6856 59.3441 16.0316 59.77 16.0316C60.1958 16.0316 60.5419 15.6856 60.5419 15.2597C60.5419 14.8338 60.1958 14.4878 59.77 14.4878Z" fill="#9AF4B4"/>
</svg>
