<svg width="98" height="98" viewBox="0 0 98 98" fill="none" xmlns="http://www.w3.org/2000/svg">
<circle cx="49" cy="49" r="49" fill="#F7931B"/>
<path d="M66.9207 23.0408C60.4489 23.0408 55.1975 28.2883 55.1975 34.7601C55.1975 41.2319 60.445 46.4832 66.9207 46.4832C73.3963 46.4832 78.64 41.2357 78.64 34.7601C78.64 28.2844 73.3963 23.0408 66.9207 23.0408ZM66.9207 41.794C63.036 41.794 59.8868 38.6447 59.8868 34.7601C59.8868 30.8755 63.036 27.7262 66.9207 27.7262C70.8053 27.7262 73.9546 30.8755 73.9546 34.7601C73.9546 38.6447 70.8053 41.794 66.9207 41.794Z" fill="white"/>
<path d="M30.5541 23.0408C24.0784 23.0408 18.8309 28.2883 18.8309 34.7601C18.8309 41.2319 24.0784 46.4832 30.5502 46.4832C37.022 46.4832 42.2734 41.2357 42.2734 34.7601C42.2734 28.2844 37.0259 23.0408 30.5541 23.0408ZM30.5541 41.794C26.6695 41.794 23.5202 38.6447 23.5202 34.7601C23.5202 30.8755 26.6695 27.7262 30.5541 27.7262C34.4387 27.7262 37.588 30.8755 37.588 34.7601C37.588 38.6447 34.4387 41.794 30.5541 41.794Z" fill="white"/>
<path d="M43.7593 29.397C44.6795 31.4606 45.1376 33.7783 44.9798 36.2191C44.5062 43.5803 38.4387 49.4592 31.066 49.7094C25.2756 49.9019 20.2206 46.691 17.7451 41.9209C17.6835 41.8016 17.5103 41.5436 17.5103 42.0903V46.025C17.5103 47.6728 17.6758 51.9771 20.39 55.5075C20.9983 56.3006 21.8761 57.471 23.0619 58.8069C23.3738 59.1572 23.4046 59.677 23.1389 60.062C22.6461 60.7781 22.1687 61.5057 21.5989 62.1679C21.0368 62.8263 20.8135 63.7349 21.6259 64.6588C22.3227 65.4481 22.9811 66.2835 23.497 67.2152C23.9282 67.9929 23.8627 68.4973 23.2352 69.1325C22.8694 69.5021 22.469 69.9218 22.034 70.3337C21.5874 70.7572 20.4593 71.9122 19.3082 72.1316C18.5959 72.2664 18.1647 73.2096 18.3572 73.6524C18.7692 74.5995 19.3582 75.0576 20.2784 74.8382C20.8674 74.6996 21.2447 74.3107 21.5335 73.8295C22.0994 72.8862 22.6731 71.9507 23.3776 71.1075C23.5894 70.8573 23.8974 70.634 24.1283 70.5647C24.5018 70.4492 25.4412 70.5532 25.395 71.6003C25.368 72.2009 25.3064 72.7938 25.1832 73.379C24.9253 74.5918 24.8059 75.843 23.9936 76.8787C23.651 77.3175 23.6818 77.8373 23.9551 78.3455C24.3285 79.0346 25.1332 79.4851 25.676 79.385C26.7078 79.1963 27.32 78.5187 27.2776 77.5909C27.2199 76.3435 27.1044 75.1115 27.0928 73.8526C27.089 73.2635 27.1121 72.4666 27.3585 71.8044C27.6819 70.9266 28.5096 70.7033 29.2065 71.3116C29.6646 71.712 30.0188 72.2009 30.3075 72.7322C30.6155 73.302 30.8773 73.8949 31.2238 74.4378C31.6204 75.0576 32.3249 75.2463 33.0449 75.0114C33.6455 74.8151 34.0613 74.2376 34.0459 73.6023C34.0305 72.8939 33.6763 72.4704 32.8909 72.2471C32.4751 72.1278 32.0824 71.9545 31.7551 71.6773C31.1199 71.1383 29.2912 69.402 28.6521 68.7899C27.2622 67.4539 25.9263 66.0641 24.6442 64.6242C23.9705 63.8696 23.9936 62.9918 24.675 62.2449C24.7328 62.1833 24.8059 62.1102 24.8945 62.0255C25.2795 61.6674 25.8685 61.6559 26.2612 62.0024C30.7811 65.9871 37.7842 70.0488 48.0944 70.0488H49.4034C59.6982 70.0488 66.7013 65.9948 71.2212 62.0139C71.6139 61.6674 72.2067 61.679 72.5917 62.037C72.6726 62.114 72.7457 62.1833 72.7958 62.2411C73.4772 62.988 73.5003 63.8658 72.8266 64.6203C71.5407 66.0602 70.2086 67.4501 68.8188 68.786C68.1835 69.3982 66.3509 71.1345 65.7157 71.6735C65.3846 71.9507 64.9958 72.1239 64.58 72.2433C63.7946 72.4666 63.4404 72.8901 63.425 73.5985C63.4096 74.2299 63.8254 74.8074 64.426 75.0076C65.1459 75.2424 65.8504 75.0538 66.247 74.4339C66.5935 73.8911 66.8553 73.2943 67.1633 72.7284C67.452 72.1932 67.8101 71.7081 68.2644 71.3077C68.9612 70.6956 69.789 70.9227 70.1124 71.8005C70.3549 72.4627 70.3819 73.2597 70.378 73.8487C70.3665 75.1077 70.2471 76.3397 70.1932 77.587C70.1509 78.5187 70.763 79.1925 71.7948 79.3811C72.3376 79.4812 73.1423 79.0308 73.5157 78.3416C73.7891 77.8373 73.8199 77.3137 73.4772 76.8748C72.6649 75.8392 72.5455 74.5841 72.2876 73.3752C72.1644 72.7938 72.1028 72.2009 72.0759 71.5965C72.0297 70.5493 72.969 70.4454 73.3425 70.5609C73.5735 70.634 73.8815 70.8534 74.0932 71.1037C74.7978 71.9507 75.3714 72.8862 75.9374 73.8295C76.2261 74.3107 76.6034 74.6996 77.1925 74.8382C78.1126 75.0576 78.7016 74.5995 79.1136 73.6524C79.3061 73.2135 78.8749 72.2664 78.1626 72.1316C77.0115 71.916 75.8796 70.7572 75.4369 70.3337C75.0018 69.9218 74.6014 69.5021 74.2357 69.1325C73.6081 68.4973 73.5427 67.9929 73.9739 67.2152C74.4898 66.2835 75.152 65.4481 75.845 64.6588C76.6612 63.731 76.434 62.8263 75.8719 62.1679C75.3098 61.5096 74.8324 60.7896 74.3473 60.0774C74.0817 59.6885 74.1163 59.1726 74.4282 58.8223C75.6217 57.4787 76.5033 56.3006 77.1155 55.5036C79.8297 51.9732 79.9952 47.6689 79.9952 46.0212V42.021C79.9952 41.5359 79.822 41.8016 79.7604 41.9209C77.2849 46.691 72.226 49.9058 66.4395 49.7094C59.0668 49.463 52.9954 43.5803 52.5257 36.2191C52.3679 33.7783 52.826 31.4606 53.7461 29.397C53.7461 29.397 51.3245 28.0457 48.7989 28.0457C46.7623 28.0457 45.2031 28.7271 43.7747 29.397H43.7593ZM71.8218 54.6104C70.5205 55.4035 69.173 56.0118 67.6638 56.2351C66.5858 56.3968 65.4847 56.3891 64.3952 56.289C62.6011 56.1235 60.9148 55.6307 59.267 54.93C56.8993 53.9213 54.5508 52.9203 51.9559 52.5353C50.8741 52.3736 49.8038 52.3082 48.7412 52.3236C47.6786 52.3082 46.6083 52.3774 45.5265 52.5353C42.9354 52.9203 40.5831 53.9213 38.2154 54.93C36.5676 55.6307 34.8813 56.1196 33.0872 56.289C31.9977 56.3891 30.9004 56.3968 29.8186 56.2351C28.3133 56.008 26.9658 55.3997 25.6606 54.6104C25.395 54.4487 25.5143 54.1561 25.8146 54.2716C27.7935 55.0185 29.9418 55.2919 32.0477 55.1494C33.58 55.0455 35.12 54.6258 36.5445 54.0252C38.2539 53.3053 39.944 52.312 41.6996 51.7191C43.9903 50.9453 46.3465 50.6065 48.7412 50.618C51.1359 50.6065 53.4921 50.9491 55.7828 51.7191C57.5384 52.312 59.2285 53.3053 60.9379 54.0252C62.3624 54.6258 63.8985 55.0455 65.4347 55.1494C67.5406 55.2957 69.6889 55.0185 71.6677 54.2716C71.968 54.1561 72.0874 54.4487 71.8218 54.6104Z" fill="white"/>
<path d="M29.0793 31.3062C29.6491 31.3062 30.1073 31.7681 30.1073 32.3341C30.1073 32.9 29.6453 33.362 29.0793 33.362C28.5134 33.362 28.0514 32.9 28.0514 32.3341C28.0514 31.7681 28.5134 31.3062 29.0793 31.3062Z" fill="white"/>
<path d="M28.1285 35.6335C28.4981 35.6335 28.7984 35.9338 28.7984 36.3034C28.7984 36.673 28.4981 36.9733 28.1285 36.9733C27.7589 36.9733 27.4586 36.673 27.4586 36.3034C27.4586 35.9338 27.7589 35.6335 28.1285 35.6335Z" fill="white"/>
<path d="M68.4338 31.3062C67.8678 31.3062 67.4097 31.7643 67.4097 32.3302C67.4097 32.8962 67.8678 33.3543 68.4338 33.3543C68.9997 33.3543 69.4579 32.8962 69.4579 32.3302C69.4579 31.7643 68.9997 31.3062 68.4338 31.3062Z" fill="white"/>
<path d="M69.3811 35.614C69.0115 35.614 68.7112 35.9143 68.7112 36.2839C68.7112 36.6535 69.0115 36.9538 69.3811 36.9538C69.7507 36.9538 70.051 36.6535 70.051 36.2839C70.051 35.9143 69.7507 35.614 69.3811 35.614Z" fill="white"/>
</svg>
